<?xml version="1.0" standalone="no"?>
<!DOCTYPE svg PUBLIC "-//W3C//DTD SVG 20010904//EN"
 "http://www.w3.org/TR/2001/REC-SVG-20010904/DTD/svg10.dtd">
<svg version="1.0" xmlns="http://www.w3.org/2000/svg"
 width="561.000000pt" height="561.000000pt" viewBox="0 0 561.000000 561.000000"
 preserveAspectRatio="xMidYMid meet">
<metadata>
Created by potrace 1.14, written by Peter Selinger 2001-2017
</metadata>
<g transform="translate(0.000000,561.000000) scale(0.100000,-0.100000)"
fill="#000000" stroke="none">
<path d="M2609 5556 c-2 -2 -35 -6 -74 -9 -254 -21 -615 -110 -824 -204 -398
-177 -647 -346 -923 -626 -344 -347 -582 -769 -703 -1242 -18 -71 -36 -148
-39 -170 -4 -22 -11 -65 -16 -95 -36 -204 -33 -643 5 -841 2 -9 6 -33 9 -52
13 -79 58 -258 93 -362 262 -796 895 -1445 1692 -1734 95 -35 294 -93 359
-106 262 -50 362 -60 607 -60 252 0 350 9 565 51 197 39 387 99 575 179 110
47 310 152 345 180 8 6 22 14 30 17 8 3 62 40 120 81 554 395 931 940 1099
1590 11 42 23 96 26 119 4 24 8 46 11 49 3 6 18 153 30 304 9 113 3 390 -11
485 -3 19 -9 68 -15 108 -5 39 -15 93 -21 120 -6 26 -12 55 -14 65 -57 276
-206 627 -378 891 -44 66 -82 123 -86 126 -4 3 -20 23 -36 45 -104 142 -307
349 -470 480 -125 101 -336 235 -495 314 -310 155 -595 239 -970 287 -53 6
-485 15 -491 10z"/>
</g>
</svg>
